<svg width="180" height="180" viewBox="0 0 180 180" fill="none" xmlns="http://www.w3.org/2000/svg">
<rect width="180" height="180" fill="white"/>
<rect width="132" height="132" transform="translate(24 24)" fill="white"/>
<g clip-path="url(#clip0_1_13)">
<mask id="mask0_1_13" style="mask-type:luminance" maskUnits="userSpaceOnUse" x="30" y="24" width="120" height="132">
<path d="M149.05 24H30.3556V156H149.05V24Z" fill="white"/>
</mask>
<g mask="url(#mask0_1_13)">
<path d="M81.6009 153.699L69.4891 146.707V123.396L89.7033 134.554L109.917 123.396V146.707L97.8056 153.699C95.3426 155.122 92.5481 155.872 89.7033 155.871C86.8584 155.872 84.0639 155.122 81.6009 153.699ZM133.331 67.9066C133.332 67.2935 133.17 66.6911 132.864 66.1601C132.557 65.6291 132.116 65.1881 131.585 64.8817C131.054 64.5752 130.452 64.414 129.839 64.4143C129.226 64.4145 128.623 64.5763 128.092 64.8832L89.7326 86.5264L51.3127 64.8837C50.7819 64.5769 50.1797 64.4154 49.5666 64.4152C48.9536 64.415 48.3513 64.5762 47.8203 64.8826C47.2893 65.1891 46.8484 65.6299 46.5418 66.1608C46.2352 66.6918 46.0739 67.294 46.0739 67.9071V133.19L38.5862 128.868C36.1239 127.444 34.0792 125.399 32.6572 122.936C31.2352 120.473 30.4859 117.68 30.4845 114.836V65.1639C30.4858 62.3198 31.2352 59.526 32.6573 57.063C34.0795 54.6 36.1244 52.5543 38.5869 51.1313L81.6014 26.3009C84.0639 24.8775 86.8584 24.1281 89.7033 24.1281C92.5481 24.1281 95.3426 24.8775 97.8056 26.3009L140.82 51.1313C143.283 52.554 145.328 54.5997 146.75 57.0627C148.172 59.5258 148.921 62.3197 148.922 65.1639V114.836C148.921 117.68 148.171 120.473 146.749 122.936C145.327 125.399 143.282 127.444 140.819 128.867L133.331 133.189V67.9066Z" fill="#44C9F6"/>
</g>
</g>
<defs>
<clipPath id="clip0_1_13">
<rect width="118.8" height="132" fill="white" transform="translate(30.3556 24)"/>
</clipPath>
</defs>
</svg>
