<svg width="512" height="512" viewBox="0 0 512 512" fill="none" xmlns="http://www.w3.org/2000/svg">
<g clip-path="url(#clip0_1_5)">
<rect width="512" height="512" fill="white"/>
<mask id="mask0_1_5" style="mask-type:luminance" maskUnits="userSpaceOnUse" x="24" y="0" width="462" height="512">
<path d="M485.044 0H24.6519V512H485.044V0Z" fill="white"/>
</mask>
<g mask="url(#mask0_1_5)">
<path d="M223.422 503.074L176.442 475.955V385.538L254.849 428.815L333.253 385.538V475.955L286.276 503.074C276.723 508.596 265.883 511.503 254.849 511.501C243.814 511.503 232.975 508.596 223.422 503.074ZM424.073 170.304C424.074 167.926 423.449 165.59 422.26 163.53C421.071 161.47 419.36 159.76 417.299 158.572C415.24 157.383 412.903 156.757 410.525 156.758C408.147 156.759 405.811 157.387 403.752 158.577L254.963 242.527L105.94 158.579C103.881 157.389 101.545 156.763 99.1674 156.762C96.7894 156.761 94.4532 157.387 92.3936 158.575C90.3341 159.764 88.6238 161.474 87.4346 163.533C86.2455 165.592 85.6197 167.928 85.6197 170.306V423.526L56.5766 406.759C47.0259 401.239 39.0948 393.305 33.5792 383.753C28.0635 374.2 25.1572 363.365 25.1519 352.334V159.666C25.157 148.634 28.0635 137.798 33.5797 128.244C39.096 118.691 47.028 110.756 56.5794 105.236L223.424 8.92455C232.975 3.40373 243.814 0.49704 254.849 0.49704C265.883 0.49704 276.723 3.40373 286.276 8.92455L453.12 105.236C462.672 110.755 470.606 118.69 476.122 128.243C481.638 137.797 484.544 148.634 484.547 159.666V352.334C484.542 363.365 481.635 374.2 476.118 383.753C470.602 393.305 462.668 401.239 453.116 406.756L424.073 423.523V170.304Z" fill="#44C9F6"/>
</g>
</g>
<defs>
<clipPath id="clip0_1_5">
<rect width="512" height="512" fill="white"/>
</clipPath>
</defs>
</svg>
