<svg width="192" height="192" viewBox="0 0 192 192" fill="none" xmlns="http://www.w3.org/2000/svg">
<g clip-path="url(#clip0_1_9)">
<rect width="192" height="192" fill="white"/>
<g clip-path="url(#clip1_1_9)">
<mask id="mask0_1_9" style="mask-type:luminance" maskUnits="userSpaceOnUse" x="9" y="0" width="173" height="192">
<path d="M181.891 0H9.24438V192H181.891V0Z" fill="white"/>
</mask>
<g mask="url(#mask0_1_9)">
<path d="M83.7831 188.653L66.1658 178.483V144.577L95.5683 160.806L124.97 144.577V178.483L107.354 188.653C103.771 190.724 99.7063 191.814 95.5683 191.813C91.4303 191.814 87.3656 190.724 83.7831 188.653ZM159.027 63.8641C159.028 62.9723 158.793 62.0962 158.347 61.3238C157.901 60.5514 157.26 59.9101 156.487 59.4643C155.715 59.0185 154.839 58.784 153.947 58.7844C153.055 58.7848 152.179 59.02 151.407 59.4665L95.611 90.9476L39.7274 59.4672C38.9554 59.021 38.0794 58.786 37.1877 58.7857C36.296 58.7854 35.4199 59.02 34.6476 59.4657C33.8752 59.9114 33.2339 60.5526 32.7879 61.3249C32.342 62.0971 32.1073 62.9732 32.1073 63.8649V158.822L21.2162 152.535C17.6346 150.465 14.6605 147.489 12.5921 143.908C10.5238 140.325 9.43389 136.262 9.43188 132.125V59.8748C9.43381 55.7379 10.5238 51.6742 12.5923 48.0917C14.6609 44.5091 17.6354 41.5335 21.2172 39.4637L83.7838 3.34672C87.3656 1.27641 91.4303 0.186401 95.5683 0.186401C99.7063 0.186401 103.771 1.27641 107.354 3.34672L169.92 39.4637C173.502 41.5331 176.477 44.5086 178.546 48.0912C180.614 51.674 181.704 55.7378 181.705 59.8748V132.125C181.703 136.262 180.613 140.325 178.544 143.908C176.476 147.489 173.5 150.465 169.919 152.533L159.027 158.821V63.8641Z" fill="#44C9F6"/>
</g>
</g>
</g>
<defs>
<clipPath id="clip0_1_9">
<rect width="192" height="192" fill="white"/>
</clipPath>
<clipPath id="clip1_1_9">
<rect width="172.8" height="192" fill="white" transform="translate(9.24438)"/>
</clipPath>
</defs>
</svg>
